<svg width="51" height="38" viewBox="0 0 51 38" fill="none" xmlns="http://www.w3.org/2000/svg">
<g clip-path="url(#clip0_101_4170)">
<path d="M21.8358 0.943359C9.1702 1.76883 0.337635 12.5 0.00433071 24.2217C-0.162322 31.6509 4.50394 35.9434 10.0035 35.9434C15.6696 35.9434 20.3359 31.816 20.3359 26.2028C20.3359 21.4151 16.5029 17.783 11.8366 17.783C9.50351 17.783 7.33703 18.7735 6.00381 20.2594C6.83707 10.6839 13.8365 4.74053 21.6691 3.25468L21.8358 0.943359ZM50 0.943359C37.3344 1.76883 28.5019 12.5 28.1686 24.2217C28.0019 31.6509 32.6682 35.9434 38.1677 35.9434C43.8339 35.9434 48.5001 31.816 48.5001 26.2028C48.5001 21.4151 44.6671 17.783 40.0009 17.783C37.6677 17.783 35.5013 18.7735 34.168 20.2594C35.0013 10.6839 42.0007 4.74053 49.8333 3.25468L50 0.943359Z" fill="#0A211A"/>
</g>
<defs>
<clipPath id="clip0_101_4170">
<rect width="38" height="51" fill="white" transform="translate(51) rotate(90)"/>
</clipPath>
</defs>
</svg>
