<?xml version="1.0" encoding="utf-8"?>
<svg xmlns="http://www.w3.org/2000/svg" xmlns:xlink="http://www.w3.org/1999/xlink">
    <symbol fill="currentColor" viewBox="0 0 30 30" id="arrow-left" xmlns="http://www.w3.org/2000/svg">
        <path d="M1.4,13.6L0,15l8,8l2.1-2.3l-4.2-4.2H30v-3.1H6l4.2-4.2L8,7L1.4,13.6z"/>
    </symbol>
    <symbol fill="currentColor" viewBox="0 0 30 30" id="arrow-right" xmlns="http://www.w3.org/2000/svg">
        <path d="M22,7l-2.2,2.2l4.2,4.2H0v3.1h24.1l-4.2,4.2L22,23l8-8l-1.4-1.4L22,7z"/>
    </symbol>
    <symbol fill="currentColor" viewBox="0 0 30 30" id="arrow-bottom-right" xmlns="http://www.w3.org/2000/svg">
        <polygon points="7.8,0 7.8,6.1 19.6,6.1 0,25.7 4.3,30 23.9,10.3 23.9,22.2 30,22.2 30,0 "/>
    </symbol>
    <symbol fill="currentColor" viewBox="0 0 30 30" id="chevron-right" xmlns="http://www.w3.org/2000/svg">
        <polygon points="24.4,14.8 9.6,0 5.6,4.1 16.7,15.2 5.6,26.1 9.5,30 24.3,15.2 24.3,15.2 "/>
    </symbol>
    <symbol fill="currentColor" viewBox="0 0 30 30" id="chevron-bottom" xmlns="http://www.w3.org/2000/svg">
        <path d="M15,24L0,9l3-3l12,12L27,6l3,3L15,24z"/>
    </symbol>
    <symbol fill="currentColor" viewBox="0 0 30 30" id="close" xmlns="http://www.w3.org/2000/svg">
        <polygon points="19.1,15 29.3,4.8 30,4.1 29.3,3.4 26.6,0.7 25.9,0 25.2,0.7 15,10.9 4.8,0.7 4.1,0 3.4,0.7 0.7,3.4 0,4.1 0.7,4.8 10.9,15 0.7,25.2 0,25.9 0.7,26.6 3.4,29.3 4.1,30 4.8,29.3 15,19.1 25.2,29.3 25.9,30 26.6,29.3 29.3,26.6 30,25.9 29.3,25.2 "/>
    </symbol>
    <symbol fill="currentColor" viewBox="0 0 30 30" id="quote" xmlns="http://www.w3.org/2000/svg">
        <path d="M12.8,4.4C5.4,4.9,0.2,11.2,0,18.1C-0.1,22.4,2.6,25,5.9,25c3.3,0,6.1-2.4,6.1-5.7c0-2.8-2.3-5-5-5c-1.4,0-2.6,0.6-3.4,1.5c0.5-5.6,4.6-9.1,9.2-10L12.8,4.4z M29.4,4.4C22,4.9,16.8,11.2,16.6,18.1c-0.1,4.4,2.6,6.9,5.9,6.9c3.3,0,6.1-2.4,6.1-5.7c0-2.8-2.3-5-5-5c-1.4,0-2.6,0.6-3.4,1.5c0.5-5.6,4.6-9.1,9.2-10L29.4,4.4z"/>
    </symbol>
    <symbol fill="currentColor" viewBox="0 0 30 30" id="xmeta" xmlns="http://www.w3.org/2000/svg">
        <path d="M17.8,12.7L28.6,1H26l-9.4,10.2L9,1H0.1l11.6,15.5L0,29h2.6l10.2-11l8.2,11H30L17.8,12.7z M3.9,2.9H8l18.1,24.2H22L3.9,2.9z"/>
    </symbol>
    <symbol fill="currentColor" viewBox="0 0 30 30" id="linkedin" xmlns="http://www.w3.org/2000/svg">
        <rect x="0.5" y="10" width="6.2" height="20"/>
        <path d="M3.6,0C1.6,0,0,1.6,0,3.6c0,2,1.6,3.6,3.6,3.6c2,0,3.6-1.6,3.6-3.6C7.2,1.7,5.6,0,3.6,0z"/>
        <path d="M22.5,9.5c-3,0-5.1,1.7-5.9,3.2h-0.1V10h-6l0,0v20h6.2v-9.9c0-2.6,0.5-5.1,3.7-5.1c3.2,0,3.2,3,3.2,5.3V30H30V19C30,13.6,28.8,9.5,22.5,9.5z"/>
    </symbol>
    <symbol fill="currentColor" viewBox="0 0 30 30" id="instagram" xmlns="http://www.w3.org/2000/svg">
        <path d="M22.9,5.6c-1,0-1.8,0.8-1.8,1.7c0,0.9,0.8,1.7,1.8,1.7c1,0,1.8-0.8,1.8-1.7C24.7,6.4,23.9,5.6,22.9,5.6z"/>
        <path d="M15.1,7.8C11,7.8,7.7,11,7.7,15s3.3,7.2,7.4,7.2c4.1,0,7.4-3.2,7.4-7.2S19.2,7.8,15.1,7.8z M15.1,19.6c-2.6,0-4.7-2.1-4.7-4.6s2.1-4.6,4.7-4.6c2.6,0,4.7,2.1,4.7,4.6C19.9,17.5,17.7,19.6,15.1,19.6z"/>
        <path d="M21,0.4H9c-5,0-9,3.9-9,8.8v11.7c0,4.8,4,8.8,9,8.8h12c5,0,9-3.9,9-8.8V9.2C30,4.3,26,0.4,21,0.4z M27.2,20.8c0,3.3-2.8,6-6.2,6H9c-3.4,0-6.2-2.7-6.2-6V9.2c0-3.3,2.8-6,6.2-6h12c3.4,0,6.2,2.7,6.2,6V20.8z"/>
    </symbol>
    <symbol fill="currentColor" viewBox="0 0 30 30" id="threads" xmlns="http://www.w3.org/2000/svg">
        <path d="M22.2,13.9c-0.1-0.1-0.3-0.1-0.4-0.2C21.6,9.5,19.2,7,15.3,7c0,0,0,0-0.1,0C12.9,7,11,8,9.8,9.8l2.2,1.5c0.9-1.4,2.3-1.6,3.3-1.6c0,0,0,0,0,0c1.3,0,2.3,0.4,2.9,1.1c0.5,0.5,0.8,1.3,0.9,2.2c-1.1-0.2-2.4-0.3-3.7-0.2c-3.7,0.2-6.1,2.4-6,5.4c0.1,1.5,0.8,2.8,2.1,3.7c1.1,0.7,2.5,1.1,4,1c1.9-0.1,3.5-0.8,4.5-2.2c0.8-1,1.3-2.4,1.5-4.1c0.9,0.6,1.6,1.3,2,2.2c0.6,1.5,0.7,4-1.3,6c-1.8,1.8-3.9,2.5-7.1,2.6c-3.6,0-6.3-1.2-8-3.4c-1.6-2.1-2.5-5.1-2.5-9c0-3.9,0.9-6.9,2.5-9c1.8-2.2,4.4-3.4,8-3.4c3.6,0,6.3,1.2,8.2,3.4c0.9,1.1,1.6,2.5,2,4.1l2.5-0.7c-0.5-2-1.4-3.7-2.5-5.1C23,1.5,19.6,0,15.2,0h0c-4.4,0-7.8,1.5-10,4.4C3.2,7,2.1,10.5,2.1,15l0,0l0,0c0,4.5,1.1,8,3.1,10.6c2.3,2.9,5.6,4.4,10,4.4h0c3.9,0,6.6-1,8.9-3.3c3-3,2.9-6.7,1.9-8.9C25.3,16.1,24,14.8,22.2,13.9z M15.4,20.2c-1.6,0.1-3.3-0.6-3.4-2.2c-0.1-1.2,0.8-2.5,3.5-2.6c0.3,0,0.6,0,0.9,0c1,0,1.9,0.1,2.7,0.3C18.9,19.5,17,20.1,15.4,20.2z"/>
    </symbol>
    <symbol fill="currentColor" viewBox="0 0 30 30" id="facebook" xmlns="http://www.w3.org/2000/svg">
        <path d="M11.8,30V16.6H7.3v-5.3h4.5V7c0-4.6,2.8-7,6.9-7c2,0,3.6,0.1,4.1,0.2V5h-2.8c-2.2,0-2.6,1.1-2.6,2.6v3.7h5l-0.7,5.3h-4.3V30"/>
    </symbol>
    <symbol fill="currentColor" viewBox="0 0 30 30" id="twitter" xmlns="http://www.w3.org/2000/svg">
        <path d="M26.9,8.9c0,0.3,0,0.5,0,0.8c0,8.1-6.2,17.5-17.5,17.5c-3.5,0-6.7-1-9.4-2.8c0.5,0.1,1,0.1,1.5,0.1c2.9,0,5.5-1,7.6-2.6c-2.7-0.1-5-1.8-5.7-4.3c0.4,0.1,0.8,0.1,1.2,0.1c0.6,0,1.1-0.1,1.6-0.2c-2.8-0.6-4.9-3-4.9-6v-0.1C2,11.8,3,12.1,4,12.2c-1.7-1.1-2.7-3-2.7-5.1c0-1.1,0.3-2.2,0.8-3.1c3,3.7,7.6,6.2,12.7,6.4c-0.1-0.5-0.2-0.9-0.2-1.4c0-3.4,2.7-6.1,6.1-6.1c1.8,0,3.4,0.7,4.5,1.9C26.6,4.5,28,4,29.2,3.3c-0.5,1.4-1.4,2.6-2.7,3.4c1.2-0.1,2.4-0.5,3.5-1C29.2,6.9,28.1,8,26.9,8.9L26.9,8.9z"/>
    </symbol>
</svg>
